Coordinates
version=1
nRows=26
nColumns=27
inDegrees=yes

Units are S.I. units (second, meters, Newtons, ...)
If the header above contains a line with 'inDegrees', this indicates whether rotational values are in degrees (yes) or radians (no).

endheader
time	pelvis_rotation	pelvis_tilt	pelvis_list	pelvis_tx	pelvis_ty	pelvis_tz	hip_flexion_r	hip_adduction_r	hip_rotation_r	knee_angle_r	knee_rotation_r	knee_adduction_r	knee_angle_r_beta	ankle_angle_r	subtalar_angle_r	mtp_angle_r	hip_flexion_l	hip_adduction_l	hip_rotation_l	knee_angle_l	knee_rotation_l	knee_adduction_l	knee_angle_l_beta	ankle_angle_l	subtalar_angle_l	mtp_angle_l
      2.29500000	      0.66539134	    -22.23954164	     -2.72589113	      0.04351667	      0.82680098	     -1.17942546	     39.84195001	    -23.27953249	    -24.87315125	     29.85961971	      0.00000000	     -0.04321926	      0.52114868	      1.45270565	      0.00000000	      0.00000000	     44.68876363	    -23.43455539	     -0.02262120	     28.81268681	      0.00000000	      4.28716427	      0.50287625	      1.79600714	      0.00000000	      0.00000000
      2.30000000	      0.60430793	    -22.64817678	     -2.38349568	      0.04221135	      0.82617018	     -1.17994894	     40.84857524	    -23.73342974	    -24.39029599	     30.48496145	      0.00000000	      0.05075000	      0.53206295	      1.47036202	      0.00000000	      0.00000000	     45.21769512	    -23.15408438	     -0.13836685	     29.05216877	      0.00000000	      4.33732243	      0.50705600	      1.72657346	      0.00000000	      0.00000000
      2.30500000	      0.01058052	    -23.29325215	     -1.61231799	      0.03993966	      0.82499597	     -1.18069810	     42.89344078	    -24.32793749	    -22.35498175	     31.58644790	      0.00000000	     -0.28820169	      0.55128751	      1.68338811	      0.00000000	      0.00000000	     45.75536939	    -22.81461905	     -1.30158745	     29.44671967	      0.00000000	      4.05296690	      0.51394221	      1.80389051	      0.00000000	      0.00000000
      2.31000000	     -0.26563414	    -23.67399763	     -0.98119406	      0.03848778	      0.82416421	     -1.18137778	     44.22933927	    -24.91700323	    -21.28781879	     32.38586779	      0.00000000	     -0.21092925	      0.56524002	      1.79266541	      0.00000000	      0.00000000	     46.01426866	    -22.43015934	     -1.92637651	     29.60142546	      0.00000000	      4.06733511	      0.51664234	      1.76184692	      0.00000000	      0.00000000
      2.31500000	     -0.17752737	    -24.08802662	     -0.69942806	      0.03717328	      0.82334736	     -1.18188596	     45.15986808	    -25.31821520	    -20.90373263	     32.97246828	      0.00000000	     -0.09109627	      0.57547813	      1.84443616	      0.00000000	      0.00000000	     46.73167626	    -22.18529461	     -1.92931201	     30.00827670	      0.00000000	      3.92073091	      0.52374323	      1.80545877	      0.00000000	      0.00000000
      2.32000000	     -0.23551210	    -24.56154789	     -0.33057215	      0.03560122	      0.82241828	     -1.18246149	     46.34617330	    -25.70386416	    -20.10535304	     33.63662890	      0.00000000	     -0.12475953	      0.58706992	      1.88776192	      0.00000000	      0.00000000	     47.43630889	    -21.94441046	     -2.15768462	     30.42576784	      0.00000000	      3.76994629	      0.53102983	      1.86727365	      0.00000000	      0.00000000
      2.32500000	     -0.47292908	    -24.77698314	      0.37635441	      0.03442316	      0.82134953	     -1.18321228	     47.57081665	    -26.34663719	    -19.05361858	     34.48630202	      0.00000000	      0.08326792	      0.60189952	      2.04138376	      0.00000000	      0.00000000	     47.56374734	    -21.57197409	     -3.06987079	     30.68690433	      0.00000000	      3.45520370	      0.53558752	      1.92350573	      0.00000000	      0.00000000
      2.33000000	     -0.79431971	    -25.12327988	      0.93903638	      0.03293132	      0.82020714	     -1.18383060	     48.95025726	    -26.74805123	    -17.76427962	     35.28055059	      0.00000000	      0.10356726	      0.61576177	      2.14420268	      0.00000000	      0.00000000	     47.91204585	    -21.35875434	     -3.90289858	     31.05196952	      0.00000000	      3.14721275	      0.54195911	      2.01167362	      0.00000000	      0.00000000
      2.33500000	     -0.53615721	    -25.27652176	      1.12302462	      0.03224347	      0.81934485	     -1.18428357	     49.38622196	    -27.15637013	    -17.85904675	     35.74465095	      0.00000000	      0.40513072	      0.62386185	      2.19859292	      0.00000000	      0.00000000	     48.44323328	    -21.16819984	     -3.80910627	     31.47314630	      0.00000000	      2.88506470	      0.54931003	      2.07520316	      0.00000000	      0.00000000
      2.34000000	     -0.61233814	    -25.54755746	      1.52471714	      0.03099723	      0.81818526	     -1.18479299	     50.42168241	    -27.54373155	    -17.11220822	     36.43875817	      0.00000000	      0.56927746	      0.63597631	      2.30102149	      0.00000000	      0.00000000	     48.90776749	    -20.98706089	     -4.26591959	     31.90735591	      0.00000000	      2.54895472	      0.55688842	      2.19609191	      0.00000000	      0.00000000
      2.34500000	     -0.22382860	    -26.89544968	      2.14563720	      0.02765204	      0.81627780	     -1.18560233	     52.87556929	    -28.30062516	    -16.27996275	     37.58985031	      0.00000000	      0.61539059	      0.65606665	      2.45438217	      0.00000000	      0.00000000	     50.97303946	    -20.33490182	     -3.62617403	     32.71108818	      0.00000000	      2.84664050	      0.57091619	      2.21578705	      0.00000000	      0.00000000
      2.35000000	     -0.34971418	    -25.73474681	      2.01229467	      0.02955225	      0.81603443	     -1.18562078	     51.50363961	    -28.33418043	    -16.78863097	     37.54066655	      0.00000000	      1.20004209	      0.65520823	      2.48449097	      0.00000000	      0.00000000	     49.71506941	    -20.69548891	     -4.59100661	     32.78566821	      0.00000000	      1.81064195	      0.57221786	      2.42969923	      0.00000000	      0.00000000
      2.35500000	      0.15026035	    -25.68103651	      1.96615612	      0.02933936	      0.81507998	     -1.18587272	     51.37941569	    -28.73793142	    -17.56839430	     37.89336787	      0.00000000	      1.70691123	      0.66136403	      2.57979511	      0.00000000	      0.00000000	     50.24103542	    -20.58710252	     -4.12995369	     33.29070693	      0.00000000	      1.44091472	      0.58103245	      2.56802083	      0.00000000	      0.00000000
      2.36000000	      0.06611173	    -25.85999924	      2.54924767	      0.02819919	      0.81360364	     -1.18643488	     52.50371938	    -29.28980277	    -16.69900884	     38.71091294	      0.00000000	      1.98629086	      0.67563289	      2.72836017	      0.00000000	      0.00000000	     50.54069424	    -20.31547351	     -4.78460642	     33.71808690	      0.00000000	      1.08108462	      0.58849163	      2.69763162	      0.00000000	      0.00000000
      2.36500000	      0.26991894	    -25.71493383	      2.51077074	      0.02798822	      0.81255093	     -1.18656192	     52.48116767	    -29.52467870	    -17.00292242	     39.09936057	      0.00000000	      2.37218419	      0.68241258	      2.83653421	      0.00000000	      0.00000000	     50.83052161	    -20.37904384	     -4.76962024	     34.21172882	      0.00000000	      0.57879267	      0.59710731	      2.83140950	      0.00000000	      0.00000000
      2.37000000	      0.36830292	    -25.65613548	      2.79623639	      0.02745352	      0.81124389	     -1.18689739	     52.92781706	    -29.96258709	    -16.80069237	     39.69429552	      0.00000000	      2.75004267	      0.69279615	      2.97472728	      0.00000000	      0.00000000	     51.04263116	    -20.25798498	     -5.08968118	     34.66155200	      0.00000000	      0.11890030	      0.60495821	      2.98555175	      0.00000000	      0.00000000
      2.37500000	      0.27388692	    -25.61322019	      3.15523975	      0.02676692	      0.80982958	     -1.18721434	     53.60529447	    -30.32509452	    -16.19427817	     40.35432153	      0.00000000	      3.05361213	      0.70431578	      3.10889770	      0.00000000	      0.00000000	     51.15887528	    -20.20076516	     -5.70788297	     35.10202609	      0.00000000	     -0.37537904	      0.61264593	      3.15273282	      0.00000000	      0.00000000
      2.38000000	      0.55793094	    -25.50810408	      3.22642469	      0.02643320	      0.80861896	     -1.18738909	     53.69377842	    -30.71604963	    -16.51623686	     40.82375788	      0.00000000	      3.49796903	      0.71250899	      3.23314808	      0.00000000	      0.00000000	     51.48015239	    -20.13294316	     -5.61237725	     35.56692221	      0.00000000	     -0.78707969	      0.62075990	      3.29490855	      0.00000000	      0.00000000
      2.38500000	      0.89649287	    -25.37830427	      3.15810412	      0.02616995	      0.80746511	     -1.18748343	     53.58250617	    -31.02946681	    -17.04635347	     41.19049707	      0.00000000	      3.92200607	      0.71890979	      3.35063901	      0.00000000	      0.00000000	     51.86392078	    -20.14089490	     -5.36237566	     36.06910300	      0.00000000	     -1.20549356	      0.62952461	      3.44591969	      0.00000000	      0.00000000
      2.39000000	      1.15854434	    -25.24505221	      3.39173680	      0.02578562	      0.80617696	     -1.18776743	     53.78297208	    -31.53234357	    -17.14304183	     41.71811499	      0.00000000	      4.36012892	      0.72811846	      3.48043996	      0.00000000	      0.00000000	     52.05810521	    -19.96746977	     -5.44331330	     36.47626793	      0.00000000	     -1.60109241	      0.63663097	      3.58224802	      0.00000000	      0.00000000
      2.39500000	      1.34873078	    -26.33270435	      3.74455169	      0.02277437	      0.80405574	     -1.18806495	     55.90604498	    -31.90658941	    -16.20742095	     42.67577798	      0.00000000	      4.31946933	      0.74483284	      3.51620769	      0.00000000	      0.00000000	     53.82954250	    -19.70019755	     -5.03253877	     37.26787235	      0.00000000	     -1.48284343	      0.65044708	      3.58369415	      0.00000000	      0.00000000
      2.40000000	      1.39914846	    -24.96904929	      3.65843341	      0.02499179	      0.80370360	     -1.18803670	     54.16545995	    -32.18534144	    -17.12471987	     42.64639822	      0.00000000	      5.07749747	      0.74432006	      3.71657395	      0.00000000	      0.00000000	     52.37178768	    -19.95062505	     -5.84681173	     37.29543185	      0.00000000	     -2.48264194	      0.65092808	      3.87369755	      0.00000000	      0.00000000
      2.40500000	      1.45746553	    -24.84638833	      3.86719310	      0.02450047	      0.80246372	     -1.18820480	     54.47942626	    -32.51957423	    -16.92541798	     43.13376128	      0.00000000	      5.39696732	      0.75282615	      3.82498740	      0.00000000	      0.00000000	     52.47047918	    -19.92047076	     -6.17584044	     37.66374728	      0.00000000	     -2.90261223	      0.65735640	      4.00464761	      0.00000000	      0.00000000
      2.41000000	      1.57005226	    -24.72438056	      4.03258281	      0.02402989	      0.80129185	     -1.18834272	     54.70960815	    -32.85010506	    -16.85558439	     43.57378746	      0.00000000	      5.71670341	      0.76050606	      3.89767380	      0.00000000	      0.00000000	     52.59433150	    -19.88867019	     -6.41067901	     38.01447668	      0.00000000	     -3.29624722	      0.66347778	      4.14722797	      0.00000000	      0.00000000
      2.41500000	      1.67044840	    -24.63192604	      4.29763008	      0.02348196	      0.80011932	     -1.18853482	     55.05787444	    -33.23100984	    -16.63263939	     44.03960845	      0.00000000	      6.02091135	      0.76863617	      4.05000257	      0.00000000	      0.00000000	     52.69290950	    -19.79231478	     -6.73428774	     38.32301666	      0.00000000	     -3.66481425	      0.66886282	      4.23057702	      0.00000000	      0.00000000
      2.42000000	      1.78607198	    -24.53180306	      4.48572070	      0.02298073	      0.79903571	     -1.18867637	     55.30228024	    -33.56051559	    -16.53022435	     44.43767415	      0.00000000	      6.31059084	      0.77558373	      4.13656130	      0.00000000	      0.00000000	     52.80370248	    -19.74034087	     -6.98499710	     38.62125120	      0.00000000	     -4.01615248	      0.67406799	      4.32777306	      0.00000000	      0.00000000
